<?xml version="1.0" encoding="utf-8"?>
<!-- Generator: Adobe Illustrator 25.1.0, SVG Export Plug-In . SVG Version: 6.00 Build 0)  -->
<svg version="1.1" id="Layer_1" xmlns="http://www.w3.org/2000/svg" xmlns:xlink="http://www.w3.org/1999/xlink" x="0px" y="0px"
	 viewBox="0 0 112.8 52.7" style="enable-background:new 0 0 112.8 52.7;" xml:space="preserve">
<style type="text/css">
	.st0{fill:#1D4F7A;}
	.st1{fill:#1B507B;}
	.st2{fill-rule:evenodd;clip-rule:evenodd;fill:#1D4F7A;}
	.st3{fill-rule:evenodd;clip-rule:evenodd;fill:#91CA68;}
	.st4{fill-rule:evenodd;clip-rule:evenodd;fill:#EF364A;}
	.st5{fill-rule:evenodd;clip-rule:evenodd;fill:#FFFFFF;}
</style>
<g>
	<path class="st0" d="M51.7,35.3L49.1,28H37.5l-2.6,7.3h-4.6l9.6-27c0.6-1.6,1.6-2.7,3.4-2.7c1.8,0,2.8,1.1,3.4,2.7l9.6,27H51.7z
		 M43.1,10.7l-4.2,13.2h8.9L43.1,10.7z"/>
	<path class="st0" d="M58.5,35.3V5.9h4.3v29.4H58.5z"/>
	<path class="st0" d="M75.2,10.1c-3.3,0-3.7,1.2-3.7,4.2c0,1.3-0.1,2.4,1,3.3c0.8,0.7,1.7,0.7,2.7,0.7h4.5c3.8,0,6.4,2.1,6.4,6V29
		c0,4.1-2.6,6.3-6.7,6.3H67.2V31h11c3,0,3.7-1.1,3.7-3.9v-1.5c0-2.4-1.4-3-3.6-3h-4.5c-3.6,0-6.6-2.1-6.6-5.9v-4.6
		c0-1.9,0.7-3.7,2.2-4.9C70.6,6,72,5.9,73.7,5.9h12.5v4.3H75.2z"/>
	<path class="st0" d="M101,10.1v25.1h-4.3V10.1h-7.3V5.9h18.9v4.3H101z"/>
</g>
<g>
	<g>
		<path class="st0" d="M30.3,49.1V39h0.5v10.1H30.3z M36.2,49.1l-4.8-4.5c-0.1-0.1-0.5-0.4-0.5-0.6c0-0.2,0.4-0.5,0.5-0.6L36,39h0.8
			l-5.3,5l5.5,5.1H36.2z"/>
		<path class="st1" d="M37.2,49.2h-1.1l-4.8-4.5c0,0-0.1-0.1-0.1-0.1c-0.1-0.1-0.2-0.1-0.2-0.2v4.8h-0.7V38.9H31v4.7
			c0.1-0.1,0.2-0.2,0.3-0.3l0.1-0.1l4.7-4.4h1.1L31.6,44L37.2,49.2z M36.2,48.9h0.4l-5.3-5l5.2-4.8h-0.4l-4.7,4.4
			C31.3,43.6,31,43.9,31,44c0,0.1,0.3,0.3,0.4,0.4c0,0,0.1,0.1,0.1,0.1L36.2,48.9z M30.5,48.9h0.2v-9.8h-0.2V48.9z"/>
	</g>
	<g>
		<path class="st0" d="M44.7,48.5c-0.5,0.4-0.9,0.5-1.5,0.5h-2.1h-0.4c-0.6,0-1.1-0.1-1.6-0.5c-0.7-0.6-0.8-1.1-0.8-2V39h0.5v7.4
			c0,1.6,0.7,2.2,2.3,2.2h1.6c1.6,0,2.3-0.5,2.3-2.2V39h0.5v7.5C45.5,47.3,45.4,47.9,44.7,48.5z"/>
		<path class="st1" d="M43.2,49.2h-2.6c-0.7,0-1.1-0.1-1.7-0.6c-0.8-0.7-0.8-1.3-0.8-2.1v-7.6h0.7v7.5c0,1.5,0.6,2.1,2.2,2.1h1.6
			c1.6,0,2.2-0.5,2.2-2.1v-7.5h0.8v7.6c0,0.9-0.1,1.5-0.8,2.1h0C44.2,49.1,43.8,49.2,43.2,49.2z M38.4,39.1v7.4
			c0,0.9,0.1,1.4,0.7,1.9c0.5,0.4,0.8,0.5,1.5,0.5h2.6c0.6,0,0.9-0.1,1.4-0.5c0.6-0.6,0.7-1.1,0.7-1.9v-7.4h-0.3v7.2
			c0,1.7-0.7,2.3-2.4,2.3h-1.6c-1.7,0-2.4-0.7-2.4-2.3v-7.2H38.4z"/>
	</g>
	<g>
		<path class="st0" d="M54.7,46.7c0,0.6-0.1,1.2-0.5,1.6c-0.4,0.5-1.1,0.8-1.8,0.8h-5V39h4.8c0.8,0,1.2,0,1.8,0.6
			c0.4,0.5,0.6,1,0.6,1.6v0.8c0,1-0.3,1.5-1.2,2c1,0.4,1.2,1.1,1.2,2.1V46.7z M54.2,46c0-1.2-0.6-1.7-1.8-1.7H48v4.2h4.4
			c1.2,0,1.8-0.6,1.8-1.9V46z M53.8,40c-0.4-0.5-0.8-0.5-1.4-0.5H48v4.3h4.4c1.3,0,1.8-0.6,1.8-1.9C54.2,41.3,54.2,40.5,53.8,40z"/>
		<path class="st1" d="M52.5,49.2h-5.1V38.9h5c0.8,0,1.3,0,1.9,0.7c0.4,0.5,0.6,1,0.6,1.7v0.8c0,1-0.3,1.5-1,2c0.9,0.5,1,1.2,1,2.1
			v0.5c0,0.7-0.1,1.2-0.5,1.7C53.9,48.9,53.2,49.2,52.5,49.2z M47.6,48.9h4.9c0.7,0,1.3-0.3,1.7-0.7c0.4-0.4,0.4-0.9,0.4-1.6v-0.5
			c0-1.1-0.2-1.6-1.1-2l-0.2-0.1l0.2-0.1c0.8-0.4,1.1-0.9,1.1-1.9v-0.8c0-0.6-0.2-1.1-0.5-1.5c-0.5-0.6-0.9-0.6-1.7-0.6h-4.7V48.9z
			 M52.4,48.7h-4.5v-4.5h4.6c1.3,0,1.9,0.6,1.9,1.8v0.7C54.3,48,53.6,48.7,52.4,48.7z M48.1,48.4h4.2c1.1,0,1.7-0.6,1.7-1.7V46
			c0-1.1-0.5-1.6-1.6-1.6h-4.3V48.4z M52.4,43.9h-4.5v-4.6h4.5c0.6,0,1.1,0,1.5,0.6l0,0c0.5,0.6,0.5,1.4,0.5,2
			C54.4,43.3,53.7,43.9,52.4,43.9z M48.1,43.7h4.3c1.2,0,1.7-0.5,1.7-1.8c0-0.7,0-1.3-0.4-1.8c-0.4-0.5-0.8-0.5-1.3-0.5h-4.2V43.7z"
			/>
	</g>
	<g>
		<path class="st0" d="M59,49.1c-1.3,0-2.2-0.9-2.2-2.2v-5.6c0-1.4,1-2.3,2.4-2.3h4.1v0.5H59c-0.5,0-1,0.2-1.3,0.5
			c-0.4,0.4-0.5,0.8-0.5,1.3v2.5h6v0.5h-6v2.4c0,1.1,0.7,1.8,1.8,1.8h4.2v0.5H59z"/>
		<path class="st1" d="M63.3,49.2H59c-1.4,0-2.4-0.9-2.4-2.3v-5.6c0-1.5,1-2.4,2.5-2.4h4.3v0.8H59c-0.5,0-0.9,0.2-1.2,0.4
			c-0.4,0.4-0.5,0.7-0.5,1.2v2.4h6v0.8h-6v2.3c0,1,0.7,1.7,1.7,1.7h4.3V49.2z M59.1,39.1c-1.4,0-2.2,0.9-2.2,2.2v5.6
			c0,1.3,0.8,2.1,2.1,2.1h4.1v-0.2h-4c-1.2,0-2-0.7-2-1.9v-2.6h6v-0.3h-6v-2.7c0-0.6,0.1-1,0.6-1.4c0.4-0.3,0.9-0.5,1.4-0.5h4v-0.3
			H59.1z"/>
	</g>
	<g>
		<path class="st0" d="M64,45.1v-0.5h5.3v0.5H64z"/>
		<path class="st1" d="M69.4,45.2h-5.5v-0.7h5.5V45.2z M64.1,45h5v-0.2h-5V45z"/>
	</g>
	<g>
		<path class="st0" d="M72.3,39.5c-1.2,0-2,0.5-2,1.8V42c0,1,0.7,1.7,1.7,1.6h0.4H74c1.4,0,2.4,0.7,2.4,2.2v1c0,0.7-0.2,1.2-0.7,1.7
			c-0.6,0.5-1,0.5-1.8,0.5h-4.1v-0.5H74c0.6,0,1.1,0,1.5-0.4c0.4-0.3,0.5-0.7,0.5-1.2v-1c0-1.3-0.7-1.7-1.9-1.7h-1.5
			c-1.4,0-2.6-0.5-2.6-2.1v-0.8c0-0.7,0.2-1.2,0.7-1.7c0.6-0.5,1-0.6,1.8-0.6h4.1v0.5H72.3z"/>
		<path class="st1" d="M74,49.2h-4.2v-0.7H74c0.6,0,1,0,1.4-0.4c0.3-0.3,0.4-0.7,0.4-1.1v-1c0-1.1-0.6-1.6-1.8-1.6h-1.5
			c-1.7,0-2.7-0.8-2.7-2.2v-0.8c0-0.8,0.2-1.4,0.7-1.8c0.6-0.6,1.2-0.6,1.9-0.6h4.2v0.8h-4.2c-1.2,0-1.8,0.5-1.8,1.6V42
			c0,0.5,0.1,0.8,0.4,1.1c0.3,0.3,0.7,0.4,1.1,0.4c0,0,0,0,0,0H74c1.6,0,2.6,0.8,2.6,2.3v1c0,0.8-0.2,1.3-0.7,1.8
			C75.2,49.2,74.7,49.2,74,49.2z M70,48.9h4c0.7,0,1.1,0,1.7-0.5c0.5-0.4,0.7-0.9,0.7-1.6v-1c0-1.8-1.4-2.1-2.3-2.1h-1.9
			c-0.5,0-1-0.2-1.4-0.5c-0.3-0.3-0.5-0.8-0.5-1.3v-0.8c0-1.2,0.7-1.9,2.1-1.9h4v-0.3h-4c-0.8,0-1.2,0.1-1.7,0.6
			c-0.5,0.4-0.6,0.9-0.6,1.6v0.8c0,1.7,1.5,2,2.5,2H74c1.4,0,2.1,0.6,2.1,1.8v1c0,0.4-0.1,0.9-0.5,1.3c-0.5,0.4-1,0.5-1.6,0.5h-4
			V48.9z"/>
	</g>
	<g>
		<path class="st0" d="M81.2,39.5v9.6h-0.5v-9.6h-3V39h6.4v0.5H81.2z"/>
		<path class="st1" d="M81.4,49.2h-0.7v-9.6h-3v-0.8h6.7v0.8h-3V49.2z M80.9,48.9h0.2v-9.6h3v-0.3h-6.2v0.3h3V48.9z"/>
	</g>
	<g>
		<path class="st0" d="M91.9,49.1l-1.1-3h-5.2l-1.2,3h-0.6l3.9-9.8c0.1-0.2,0.2-0.4,0.4-0.4c0.2,0,0.4,0.2,0.4,0.4l3.9,9.8H91.9z
			 M88.1,39.4l-2.4,6.2h4.8L88.1,39.4z"/>
		<path class="st1" d="M92.7,49.2h-0.9l-1.1-3h-5.1l-1.2,3h-0.9l0.1-0.2l3.9-9.8c0.1-0.3,0.3-0.4,0.6-0.4c0.4,0,0.5,0.3,0.6,0.4
			L92.7,49.2z M92,48.9h0.3l-3.9-9.7c-0.1-0.2-0.2-0.3-0.3-0.3c-0.1,0-0.2,0.1-0.3,0.3l-3.9,9.7h0.3l1.2-3h5.4L92,48.9z M90.7,45.7
			h-5.1l2.6-6.7L90.7,45.7z M85.9,45.5h4.4l-2.2-5.7L85.9,45.5z"/>
	</g>
	<g>
		<path class="st0" d="M96,39.5c-0.5,0-0.9,0-1.3,0.4c-0.4,0.3-0.5,0.8-0.5,1.3v5.6c0,0.6,0.1,1,0.6,1.4c0.5,0.4,0.8,0.4,1.4,0.4h4
			v0.5h-4.4c-0.6,0-1-0.1-1.5-0.5c-0.6-0.5-0.7-1-0.7-1.8v-5.6c0-0.7,0.2-1.3,0.7-1.7c0.5-0.4,1-0.5,1.6-0.5h4.2v0.5H96z"/>
		<path class="st1" d="M100.3,49.2h-4.5c-0.6,0-1-0.1-1.5-0.6c-0.6-0.5-0.7-1.1-0.7-1.9v-5.6c0-0.8,0.3-1.4,0.8-1.8
			c0.5-0.4,1-0.5,1.7-0.5h4.4v0.8H96c-0.5,0-0.8,0-1.2,0.3c-0.3,0.3-0.5,0.7-0.5,1.2v5.6c0,0.5,0.1,1,0.5,1.3
			c0.4,0.4,0.8,0.4,1.4,0.4h4.1V49.2z M96,39.1c-0.6,0-1.1,0.1-1.5,0.5c-0.5,0.4-0.7,0.9-0.7,1.6v5.6c0,0.7,0.1,1.2,0.6,1.7
			c0.5,0.4,0.8,0.5,1.4,0.5h4.2v-0.2h-3.9c-0.6,0-1,0-1.5-0.5c-0.5-0.5-0.6-1-0.6-1.5v-5.6c0-0.6,0.2-1,0.6-1.3
			c0.5-0.4,0.8-0.4,1.4-0.4h4.1v-0.3H96z"/>
	</g>
	<g>
		<path class="st0" d="M101.8,49.1V39h0.5v10.1H101.8z M107.6,49.1l-4.8-4.5c-0.1-0.1-0.5-0.4-0.5-0.6c0-0.2,0.4-0.5,0.5-0.6
			l4.6-4.4h0.8l-5.3,5l5.5,5.1H107.6z"/>
		<path class="st1" d="M108.7,49.2h-1.1l-4.8-4.5c0,0-0.1-0.1-0.1-0.1c-0.1-0.1-0.2-0.1-0.2-0.2v4.8h-0.7V38.9h0.7v4.7
			c0.1-0.1,0.2-0.2,0.3-0.3l0.1-0.1l4.7-4.4h1.1l-5.5,5.1L108.7,49.2z M107.6,48.9h0.4l-5.3-5l5.2-4.8h-0.4l-4.7,4.4
			c-0.1,0.1-0.4,0.4-0.4,0.5c0,0.1,0.3,0.3,0.4,0.4c0,0,0.1,0.1,0.1,0.1L107.6,48.9z M101.9,48.9h0.2v-9.8h-0.2V48.9z"/>
	</g>
</g>
<g id="Layer_2">
	<rect x="3.1" y="37.3" class="st2" width="14.2" height="14.2"/>
	<polygon class="st3" points="3.1,37.3 8.6,34.9 22.8,34.9 17.3,37.3 	"/>
	<path class="st3" d="M17.3,51.5"/>
	<polygon class="st4" points="22.8,34.9 22.8,49.1 17.3,51.5 17.3,37.3 	"/>
	<path class="st3" d="M20.7,34.3"/>
</g>
<g id="Layer_2_copy">
	<rect x="3.3" y="20.9" class="st2" width="14.2" height="14.2"/>
	<polygon class="st3" points="3.3,20.9 8.8,18.5 23,18.5 17.5,20.9 	"/>
	<path class="st3" d="M17.5,35.1"/>
	<polygon class="st4" points="23,18.5 23,32.7 17.5,35.1 17.5,20.9 	"/>
	<g id="svgg_2_">
		<path id="path0_2_" class="st5" d="M9,23.4c0,0,0,0.1,0,0.1c0.2,0.6,0.2,1.3-0.1,2.1c-0.3,0.8-0.3,1.5,0,2.3
			c0.2,0.5,0.2,0.7,0.2,1.2s0,0.7-0.2,1.2c-0.2,0.7-0.3,1.4-0.1,2.1l0,0.1l0.5,0l0.5,0l0,0c-0.2-0.8-0.2-1.4,0-2.2
			c0.3-0.8,0.3-1.5,0-2.3c-0.3-0.8-0.3-1.5,0-2.3c0.3-0.8,0.3-1.4,0.1-2.1l0-0.2H9.4C9.2,23.4,9,23.4,9,23.4 M11,23.4
			c0.2,0.6,0.2,1.4,0,2.2c-0.3,0.9-0.3,1.5,0,2.3c0.3,0.8,0.3,1.5,0,2.4c-0.2,0.7-0.3,1.6,0,2.2l0,0h0.5h0.5l0-0.1
			c-0.2-0.6-0.2-1.4,0.1-2.1c0.2-0.5,0.2-0.7,0.2-1.2s0-0.6-0.2-1.2c-0.3-0.8-0.3-1.5,0-2.3c0.2-0.7,0.3-1.4,0.1-2l0-0.2h-0.5
			C11,23.4,10.9,23.4,11,23.4"/>
	</g>
	<path class="st3" d="M20.9,17.9"/>
</g>
<g id="Layer_2_copy_2">
	<rect x="3.1" y="4.7" class="st2" width="14.2" height="14.2"/>
	<polygon class="st3" points="3.1,4.7 8.6,2.3 22.8,2.3 17.3,4.7 	"/>
	<path class="st3" d="M17.3,18.9"/>
	<polygon class="st4" points="22.8,2.3 22.8,16.5 17.3,18.9 17.3,4.7 	"/>
	<path class="st3" d="M20.7,1.7"/>
</g>
</svg>
